<svg width="36" height="28" viewBox="0 0 36 28" fill="none" xmlns="http://www.w3.org/2000/svg">
<path d="M30.4763 2.53898C28.142 1.4677 25.6788 0.703102 23.1481 0.264258C23.1252 0.260397 23.1017 0.263732 23.0807 0.273804C23.0598 0.283877 23.0424 0.300192 23.0311 0.320508C22.7139 0.883002 22.3629 1.61874 22.1176 2.19474C19.3898 1.78076 16.6151 1.78076 13.8872 2.19474C13.6137 1.55309 13.3042 0.927355 12.9602 0.320508C12.9487 0.300415 12.9313 0.284287 12.9105 0.274247C12.8896 0.264207 12.8661 0.260725 12.8432 0.264258C10.312 0.700754 7.8483 1.46575 5.51507 2.53898C5.49511 2.5466 5.47841 2.56092 5.46782 2.57948C0.801372 9.55216 -0.478865 16.3538 0.148878 23.07C0.151128 23.1015 0.171378 23.133 0.196128 23.1533C2.91348 25.1661 5.9529 26.703 9.18478 27.6982C9.2076 27.7054 9.23212 27.7052 9.25478 27.6975C9.27744 27.6898 9.29706 27.6751 9.31078 27.6555C10.0038 26.7105 10.6203 25.7137 11.1513 24.6653C11.1623 24.6437 11.1661 24.6191 11.1621 24.5951C11.158 24.5712 11.1463 24.5492 11.1288 24.5325C11.1171 24.5215 11.1033 24.5131 11.0883 24.5078C10.1189 24.1352 9.18005 23.6876 8.28029 23.169C8.25516 23.1548 8.23647 23.1314 8.22809 23.1038C8.21972 23.0761 8.2223 23.0463 8.23529 23.0205C8.24295 23.0038 8.25453 22.9891 8.26904 22.9778C8.45804 22.836 8.64704 22.6875 8.82704 22.539C8.84294 22.5262 8.86202 22.518 8.88223 22.5152C8.90244 22.5125 8.92303 22.5152 8.94179 22.5233C14.8345 25.2142 21.2132 25.2142 27.0338 22.5233C27.0533 22.5149 27.0746 22.5119 27.0956 22.5147C27.1167 22.5174 27.1365 22.5258 27.1531 22.539C27.3331 22.6875 27.5221 22.836 27.7111 22.9778C27.7264 22.989 27.7387 23.0038 27.7469 23.0209C27.7551 23.038 27.7589 23.0569 27.758 23.0758C27.7571 23.0948 27.7515 23.1132 27.7418 23.1295C27.732 23.1457 27.7184 23.1593 27.7021 23.169C26.8044 23.6923 25.8643 24.1394 24.8919 24.5055C24.8764 24.5111 24.8623 24.5201 24.8506 24.5317C24.8389 24.5434 24.83 24.5575 24.8244 24.573C24.8192 24.588 24.8171 24.604 24.8182 24.6198C24.8194 24.6357 24.8238 24.6511 24.8311 24.6653C25.3711 25.7115 25.9899 26.7105 26.6693 27.6555C26.6831 27.6751 26.7027 27.6898 26.7254 27.6975C26.748 27.7052 26.7725 27.7054 26.7953 27.6982C30.0326 26.706 33.077 25.169 35.7975 23.1533C35.8111 23.1438 35.8225 23.1315 35.8306 23.117C35.8388 23.1026 35.8436 23.0866 35.8448 23.07C36.5962 15.3053 34.587 8.55992 30.5213 2.58173C30.5172 2.57186 30.5111 2.56295 30.5033 2.55559C30.4956 2.54823 30.4864 2.54257 30.4763 2.53898V2.53898ZM12.031 18.9796C10.2558 18.9796 8.79554 17.3506 8.79554 15.3526C8.79554 13.3524 10.2288 11.7234 12.031 11.7234C13.8467 11.7234 15.2935 13.3659 15.2665 15.3526C15.2665 17.3506 13.8332 18.9796 12.031 18.9796ZM23.9919 18.9796C22.2189 18.9796 20.7564 17.3506 20.7564 15.3526C20.7564 13.3524 22.1896 11.7234 23.9919 11.7234C25.8076 11.7234 27.2566 13.3659 27.2273 15.3526C27.2273 17.3506 25.8076 18.9796 23.9919 18.9796Z" fill="url(#paint0_linear_73_95)"/>
<defs>
<linearGradient id="paint0_linear_73_95" x1="36" y1="27.7034" x2="6.75246e-07" y2="27.7034" gradientUnits="userSpaceOnUse">
<stop stop-color="#8800FF"/>
<stop offset="0.0001" stop-color="#7C00E8"/>
<stop offset="0.524752" stop-color="#BC008F"/>
<stop offset="1" stop-color="#FF3400"/>
</linearGradient>
</defs>
</svg>
