<svg width="33" height="33" viewBox="0 0 33 33" fill="none" xmlns="http://www.w3.org/2000/svg">
<path fill-rule="evenodd" clip-rule="evenodd" d="M9.42812 0.358945C11.1387 0.280195 11.6842 0.262695 16.0417 0.262695C20.3992 0.262695 20.9446 0.281654 22.6537 0.358945C24.3629 0.436237 25.5296 0.708945 26.5504 1.10415C27.6194 1.50811 28.5892 2.13957 29.3912 2.95624C30.2079 3.75686 30.8379 4.7252 31.2404 5.79561C31.6371 6.81645 31.9083 7.98311 31.9871 9.68936C32.0658 11.4029 32.0833 11.9483 32.0833 16.3044C32.0833 20.6619 32.0644 21.2073 31.9871 22.9179C31.9098 24.6242 31.6371 25.7908 31.2404 26.8117C30.8379 27.8822 30.2069 28.8522 29.3912 29.6539C28.5892 30.4706 27.6194 31.1006 26.5504 31.5031C25.5296 31.8998 24.3629 32.171 22.6567 32.2498C20.9446 32.3285 20.3992 32.346 16.0417 32.346C11.6842 32.346 11.1387 32.3271 9.42812 32.2498C7.72187 32.1725 6.55521 31.8998 5.53437 31.5031C4.46384 31.1006 3.4939 30.4695 2.69208 29.6539C1.87597 28.8528 1.24442 27.8834 0.841458 26.8131C0.44625 25.7923 0.175 24.6256 0.09625 22.9194C0.0175 21.2058 0 20.6604 0 16.3044C0 11.9469 0.0189583 11.4014 0.09625 9.69228C0.173542 7.98311 0.44625 6.81645 0.841458 5.79561C1.24501 4.72531 1.87705 3.75586 2.69354 2.95478C3.49423 2.13884 4.46319 1.5073 5.53292 1.10415C6.55375 0.708945 7.72042 0.437695 9.42667 0.358945H9.42812ZM22.524 3.24645C20.8323 3.16915 20.3248 3.15311 16.0417 3.15311C11.7585 3.15311 11.251 3.16915 9.55937 3.24645C7.99458 3.3179 7.14583 3.57895 6.58 3.79915C5.83187 4.09082 5.29667 4.43645 4.73521 4.9979C4.20298 5.51569 3.79339 6.14602 3.53646 6.8427C3.31625 7.40853 3.05521 8.25728 2.98375 9.82207C2.90646 11.5137 2.89042 12.0212 2.89042 16.3044C2.89042 20.5875 2.90646 21.095 2.98375 22.7867C3.05521 24.3514 3.31625 25.2002 3.53646 25.766C3.79312 26.4617 4.20292 27.0931 4.73521 27.6108C5.25292 28.1431 5.88437 28.5529 6.58 28.8096C7.14583 29.0298 7.99458 29.2908 9.55937 29.3623C11.251 29.4396 11.7571 29.4556 16.0417 29.4556C20.3262 29.4556 20.8323 29.4396 22.524 29.3623C24.0887 29.2908 24.9375 29.0298 25.5033 28.8096C26.2515 28.5179 26.7867 28.1723 27.3481 27.6108C27.8804 27.0931 28.2902 26.4617 28.5469 25.766C28.7671 25.2002 29.0281 24.3514 29.0996 22.7867C29.1769 21.095 29.1929 20.5875 29.1929 16.3044C29.1929 12.0212 29.1769 11.5137 29.0996 9.82207C29.0281 8.25728 28.7671 7.40853 28.5469 6.8427C28.2552 6.09457 27.9096 5.55936 27.3481 4.9979C26.8303 4.46572 26.2 4.05613 25.5033 3.79915C24.9375 3.57895 24.0887 3.3179 22.524 3.24645ZM13.9927 21.2496C15.137 21.7259 16.4112 21.7902 17.5976 21.4315C18.784 21.0727 19.8091 20.3132 20.4978 19.2826C21.1864 18.2521 21.4959 17.0144 21.3734 15.781C21.2509 14.5476 20.704 13.3949 19.826 12.52C19.2664 11.9607 18.5897 11.5324 17.8447 11.266C17.0996 10.9996 16.3048 10.9018 15.5174 10.9794C14.73 11.0571 13.9696 11.3084 13.291 11.7152C12.6123 12.122 12.0323 12.6742 11.5927 13.3321C11.1531 13.9899 10.8649 14.7371 10.7487 15.5197C10.6325 16.3024 10.6913 17.101 10.9208 17.8582C11.1503 18.6154 11.5449 19.3123 12.0761 19.8987C12.6072 20.4852 13.2618 20.9465 13.9927 21.2496ZM10.2112 10.4739C10.9769 9.70828 11.8859 9.10093 12.8863 8.68655C13.8867 8.27218 14.9589 8.05891 16.0417 8.05891C17.1245 8.05891 18.1967 8.27218 19.1971 8.68655C20.1974 9.10093 21.1064 9.70828 21.8721 10.4739C22.6377 11.2396 23.2451 12.1486 23.6595 13.149C24.0738 14.1493 24.2871 15.2216 24.2871 16.3044C24.2871 17.3872 24.0738 18.4594 23.6595 19.4598C23.2451 20.4601 22.6377 21.3691 21.8721 22.1348C20.3258 23.6811 18.2285 24.5498 16.0417 24.5498C13.8548 24.5498 11.7576 23.6811 10.2112 22.1348C8.66493 20.5885 7.79621 18.4912 7.79621 16.3044C7.79621 14.1175 8.66493 12.0203 10.2112 10.4739ZM26.1158 9.28686C26.3056 9.10788 26.4575 8.89265 26.5625 8.65391C26.6676 8.41517 26.7237 8.15777 26.7275 7.89697C26.7313 7.63616 26.6827 7.37724 26.5847 7.13554C26.4866 6.89384 26.341 6.67427 26.1566 6.48984C25.9722 6.3054 25.7526 6.15984 25.5109 6.06178C25.2692 5.96373 25.0103 5.91516 24.7495 5.91896C24.4887 5.92276 24.2313 5.97886 23.9925 6.08392C23.7538 6.18898 23.5386 6.34088 23.3596 6.53061C23.0115 6.89961 22.8209 7.38975 22.8283 7.89697C22.8357 8.40419 23.0405 8.88856 23.3992 9.24726C23.7579 9.60596 24.2423 9.81074 24.7495 9.81813C25.2567 9.82553 25.7468 9.63495 26.1158 9.28686Z" fill="url(#paint0_linear_73_99)"/>
<defs>
<linearGradient id="paint0_linear_73_99" x1="32.0833" y1="32.346" x2="6.01781e-07" y2="32.346" gradientUnits="userSpaceOnUse">
<stop stop-color="#8800FF"/>
<stop offset="0.0001" stop-color="#7C00E8"/>
<stop offset="0.524752" stop-color="#BC008F"/>
<stop offset="1" stop-color="#FF3400"/>
</linearGradient>
</defs>
</svg>
