<svg width="35" height="36" viewBox="0 0 35 36" fill="none" xmlns="http://www.w3.org/2000/svg">
<path d="M30.303 11.1932C30.317 11.4767 30.3223 11.7637 30.3223 12.0472C30.3223 20.7797 23.6775 30.8457 11.5273 30.8457C7.79452 30.8457 4.32427 29.752 1.40002 27.876C3.12968 28.0851 4.8836 27.9514 6.56154 27.4823C8.23948 27.0133 9.80853 26.2182 11.179 25.1425C9.80075 25.1164 8.46508 24.6603 7.35874 23.8379C6.25239 23.0155 5.4307 21.868 5.00852 20.5557C5.99913 20.741 7.01864 20.7021 7.99227 20.442C6.49709 20.1388 5.15272 19.328 4.18698 18.1469C3.22124 16.9659 2.69353 15.4873 2.69327 13.9617V13.8795C3.61062 14.3898 4.63659 14.6736 5.68577 14.7072C4.28555 13.7737 3.29436 12.3411 2.9145 10.7016C2.53465 9.06222 2.79477 7.33963 3.64177 5.88546C5.3004 7.92677 7.36989 9.59634 9.71581 10.7857C12.0617 11.9751 14.6316 12.6577 17.2585 12.7892C17.1449 12.295 17.0879 11.7895 17.0888 11.2825C17.0888 10.4152 17.2596 9.55649 17.5915 8.75529C17.9235 7.9541 18.41 7.22614 19.0233 6.61299C19.6366 5.99985 20.3647 5.51353 21.166 5.18181C21.9673 4.8501 22.826 4.67948 23.6933 4.67971C24.5971 4.67824 25.4915 4.86248 26.3212 5.22101C27.1509 5.57955 27.898 6.10472 28.5163 6.76396C29.9953 6.47118 31.4137 5.92913 32.711 5.16096C32.2176 6.69082 31.1853 7.98935 29.806 8.81496C31.1155 8.65973 32.3943 8.30934 33.6 7.77546C32.7143 9.10273 31.5976 10.2603 30.303 11.1932Z" fill="url(#paint0_linear_317_88)"/>
<defs>
<linearGradient id="paint0_linear_317_88" x1="33.6" y1="30.8457" x2="1.40003" y2="30.8457" gradientUnits="userSpaceOnUse">
<stop stop-color="#8800FF"/>
<stop offset="0.0001" stop-color="#7C00E8"/>
<stop offset="0.524752" stop-color="#BC008F"/>
<stop offset="1" stop-color="#FF3400"/>
</linearGradient>
</defs>
</svg>
