<svg width="56" height="44" viewBox="0 0 56 44" fill="none" xmlns="http://www.w3.org/2000/svg">
<path d="M47.4076 4.17448C43.7764 2.50801 39.9447 1.31863 36.0081 0.635976C35.9725 0.62997 35.9358 0.635157 35.9032 0.650826C35.8706 0.666494 35.8437 0.691874 35.8261 0.723476C35.3326 1.59848 34.7866 2.74298 34.4051 3.63898C30.1618 2.99501 25.8455 2.99501 21.6021 3.63898C21.1766 2.64085 20.6951 1.66747 20.1601 0.723476C20.1422 0.692221 20.1152 0.667133 20.0827 0.651515C20.0502 0.635896 20.0138 0.630479 19.9781 0.635976C16.0406 1.31498 12.2081 2.50498 8.57863 4.17448C8.54757 4.18633 8.5216 4.2086 8.50513 4.23748C1.24613 15.084 -0.745367 25.6645 0.231133 36.112C0.234633 36.161 0.266133 36.21 0.304633 36.2415C4.53167 39.3726 9.2597 41.7633 14.2871 43.3115C14.3226 43.3227 14.3608 43.3223 14.396 43.3103C14.4313 43.2983 14.4618 43.2755 14.4831 43.245C15.5611 41.775 16.5201 40.2245 17.3461 38.5935C17.3633 38.5599 17.3692 38.5216 17.3629 38.4844C17.3566 38.4472 17.3385 38.413 17.3111 38.387C17.293 38.3699 17.2716 38.3568 17.2481 38.3485C15.7402 37.7689 14.2798 37.0727 12.8801 36.266C12.841 36.2438 12.812 36.2075 12.7989 36.1645C12.7859 36.1215 12.7899 36.0751 12.8101 36.035C12.822 36.0089 12.84 35.9861 12.8626 35.9685C13.1566 35.748 13.4506 35.517 13.7306 35.286C13.7554 35.2661 13.785 35.2533 13.8165 35.249C13.8479 35.2447 13.88 35.249 13.9091 35.2615C23.0756 39.4475 32.9981 39.4475 42.0526 35.2615C42.0829 35.2484 42.1161 35.2437 42.1488 35.2481C42.1814 35.2524 42.2123 35.2655 42.2381 35.286C42.5181 35.517 42.8121 35.748 43.1061 35.9685C43.13 35.9859 43.1491 36.0089 43.1618 36.0355C43.1746 36.0622 43.1805 36.0915 43.1791 36.121C43.1777 36.1505 43.1691 36.1791 43.1539 36.2044C43.1387 36.2297 43.1175 36.2509 43.0921 36.266C41.6957 37.08 40.2334 37.7755 38.7206 38.345C38.6965 38.3537 38.6746 38.3676 38.6564 38.3858C38.6383 38.4039 38.6244 38.4258 38.6156 38.45C38.6075 38.4733 38.6043 38.4981 38.6061 38.5228C38.6079 38.5475 38.6147 38.5715 38.6261 38.5935C39.4661 40.221 40.4286 41.775 41.4856 43.245C41.507 43.2755 41.5375 43.2983 41.5727 43.3103C41.608 43.3223 41.6461 43.3227 41.6816 43.3115C46.7175 41.7681 51.4532 39.3771 55.6851 36.2415C55.7063 36.2268 55.7239 36.2075 55.7367 36.1851C55.7494 36.1627 55.7569 36.1377 55.7586 36.112C56.9276 24.0335 53.8021 13.5405 47.4776 4.24098C47.4713 4.22562 47.4617 4.21176 47.4497 4.20031C47.4376 4.18885 47.4233 4.18005 47.4076 4.17448ZM18.7146 29.749C15.9531 29.749 13.6816 27.215 13.6816 24.107C13.6816 20.9955 15.9111 18.4615 18.7146 18.4615C21.5391 18.4615 23.7896 21.0165 23.7476 24.107C23.7476 27.215 21.5181 29.749 18.7146 29.749ZM37.3206 29.749C34.5626 29.749 32.2876 27.215 32.2876 24.107C32.2876 20.9955 34.5171 18.4615 37.3206 18.4615C40.1451 18.4615 42.3991 21.0165 42.3536 24.107C42.3536 27.215 40.1451 29.749 37.3206 29.749Z" fill="white"/>
</svg>
