<svg width="47" height="30" viewBox="0 0 47 30" fill="none" xmlns="http://www.w3.org/2000/svg">
<path d="M2 13.2627C0.89543 13.2627 0 14.1581 0 15.2627C0 16.3673 0.89543 17.2627 2 17.2627V13.2627ZM45.445 16.6769C46.226 15.8959 46.226 14.6295 45.445 13.8485L32.717 1.12056C31.936 0.339511 30.6697 0.339511 29.8886 1.12056C29.1076 1.90161 29.1076 3.16794 29.8886 3.94899L41.2023 15.2627L29.8886 26.5764C29.1076 27.3575 29.1076 28.6238 29.8886 29.4048C30.6697 30.1859 31.936 30.1859 32.717 29.4048L45.445 16.6769ZM2 17.2627H44.0307V13.2627H2V17.2627Z" fill="url(#paint0_linear_64_912)"/>
<defs>
<linearGradient id="paint0_linear_64_912" x1="44.0307" y1="16.2627" x2="2" y2="16.2627" gradientUnits="userSpaceOnUse">
<stop stop-color="#8800FF"/>
<stop offset="0.0001" stop-color="#7C00E8"/>
<stop offset="0.524752" stop-color="#BC008F"/>
<stop offset="1" stop-color="#FF3400"/>
</linearGradient>
</defs>
</svg>
