<svg width="56" height="56" viewBox="0 0 56 56" fill="none" xmlns="http://www.w3.org/2000/svg">
<path d="M28 5.04219C35.4813 5.04219 36.3672 5.075 39.3094 5.20625C42.0438 5.32656 43.5203 5.78594 44.5047 6.16875C45.8063 6.67188 46.7469 7.28438 47.7203 8.25781C48.7047 9.24219 49.3063 10.1719 49.8094 11.4734C50.1922 12.4578 50.6516 13.9453 50.7719 16.6688C50.9031 19.6219 50.9359 20.5078 50.9359 27.9781C50.9359 35.4594 50.9031 36.3453 50.7719 39.2875C50.6516 42.0219 50.1922 43.4984 49.8094 44.4828C49.3063 45.7844 48.6938 46.725 47.7203 47.6984C46.7359 48.6828 45.8063 49.2844 44.5047 49.7875C43.5203 50.1703 42.0328 50.6297 39.3094 50.75C36.3563 50.8813 35.4703 50.9141 28 50.9141C20.5188 50.9141 19.6328 50.8813 16.6906 50.75C13.9563 50.6297 12.4797 50.1703 11.4953 49.7875C10.1938 49.2844 9.25313 48.6719 8.27969 47.6984C7.29531 46.7141 6.69375 45.7844 6.19063 44.4828C5.80781 43.4984 5.34844 42.0109 5.22813 39.2875C5.09688 36.3344 5.06406 35.4484 5.06406 27.9781C5.06406 20.4969 5.09688 19.6109 5.22813 16.6688C5.34844 13.9344 5.80781 12.4578 6.19063 11.4734C6.69375 10.1719 7.30625 9.23125 8.27969 8.25781C9.26406 7.27344 10.1938 6.67188 11.4953 6.16875C12.4797 5.78594 13.9672 5.32656 16.6906 5.20625C19.6328 5.075 20.5188 5.04219 28 5.04219ZM28 0C20.3984 0 19.4469 0.0328125 16.4609 0.164063C13.4859 0.295313 11.4406 0.776562 9.66875 1.46563C7.82031 2.1875 6.25625 3.13906 4.70313 4.70313C3.13906 6.25625 2.1875 7.82031 1.46563 9.65781C0.776563 11.4406 0.295313 13.475 0.164063 16.45C0.0328125 19.4469 0 20.3984 0 28C0 35.6016 0.0328125 36.5531 0.164063 39.5391C0.295313 42.5141 0.776563 44.5594 1.46563 46.3313C2.1875 48.1797 3.13906 49.7438 4.70313 51.2969C6.25625 52.85 7.82031 53.8125 9.65781 54.5234C11.4406 55.2125 13.475 55.6938 16.45 55.825C19.4359 55.9563 20.3875 55.9891 27.9891 55.9891C35.5906 55.9891 36.5422 55.9563 39.5281 55.825C42.5031 55.6938 44.5484 55.2125 46.3203 54.5234C48.1578 53.8125 49.7219 52.85 51.275 51.2969C52.8281 49.7438 53.7906 48.1797 54.5016 46.3422C55.1906 44.5594 55.6719 42.525 55.8031 39.55C55.9344 36.5641 55.9672 35.6125 55.9672 28.0109C55.9672 20.4094 55.9344 19.4578 55.8031 16.4719C55.6719 13.4969 55.1906 11.4516 54.5016 9.67969C53.8125 7.82031 52.8609 6.25625 51.2969 4.70313C49.7438 3.15 48.1797 2.1875 46.3422 1.47656C44.5594 0.7875 42.525 0.30625 39.55 0.175C36.5531 0.0328125 35.6016 0 28 0Z" fill="white"/>
<path d="M28 13.6172C20.0594 13.6172 13.6172 20.0594 13.6172 28C13.6172 35.9406 20.0594 42.3828 28 42.3828C35.9406 42.3828 42.3828 35.9406 42.3828 28C42.3828 20.0594 35.9406 13.6172 28 13.6172ZM28 37.3297C22.8484 37.3297 18.6703 33.1516 18.6703 28C18.6703 22.8484 22.8484 18.6703 28 18.6703C33.1516 18.6703 37.3297 22.8484 37.3297 28C37.3297 33.1516 33.1516 37.3297 28 37.3297Z" fill="white"/>
<path d="M46.3094 13.0485C46.3094 14.9079 44.8 16.4063 42.9516 16.4063C41.0922 16.4063 39.5938 14.8969 39.5938 13.0485C39.5938 11.1891 41.1031 9.69067 42.9516 9.69067C44.8 9.69067 46.3094 11.2001 46.3094 13.0485Z" fill="white"/>
</svg>
