<svg width="52" height="42" viewBox="0 0 52 42" fill="none" xmlns="http://www.w3.org/2000/svg">
<path d="M46.4848 10.4888C46.5072 10.9424 46.5156 11.4016 46.5156 11.8552C46.5156 25.8272 35.884 41.9328 16.4436 41.9328C10.4712 41.9328 4.91881 40.1828 0.240005 37.1812C3.00746 37.5158 5.81373 37.3018 8.49843 36.5514C11.1831 35.8009 13.6936 34.5287 15.8864 32.8076C13.6812 32.7659 11.5441 32.0361 9.77394 30.7203C8.0038 29.4045 6.68908 27.5684 6.01361 25.4688C7.59858 25.7651 9.2298 25.703 10.7876 25.2868C8.39532 24.8017 6.24432 23.5044 4.69914 21.6147C3.15395 19.7251 2.30961 17.3593 2.30921 14.9184V14.7868C3.77696 15.6032 5.41851 16.0573 7.09721 16.1112C4.85685 14.6176 3.27094 12.3253 2.66317 9.70224C2.0554 7.07916 2.4716 4.32301 3.82681 1.99635C6.48061 5.26244 9.79179 7.93375 13.5453 9.83678C17.2987 11.7398 21.4105 12.832 25.6136 13.0424C25.4318 12.2517 25.3406 11.4429 25.342 10.6316C25.342 9.24398 25.6154 7.87 26.1464 6.58808C26.6775 5.30617 27.4559 4.14144 28.4372 3.1604C29.4185 2.17937 30.5835 1.40126 31.8655 0.870516C33.1476 0.33977 34.5216 0.0667849 35.9092 0.0671527C37.3553 0.0647944 38.7864 0.359584 40.1139 0.933237C41.4413 1.50689 42.6368 2.34717 43.626 3.40195C45.9924 2.93351 48.2619 2.06622 50.3376 0.837153C49.5481 3.28492 47.8964 5.36257 45.6896 6.68355C47.7847 6.43518 49.8309 5.87456 51.76 5.02035C50.3428 7.14398 48.5561 8.99611 46.4848 10.4888Z" fill="white"/>
</svg>
