<svg width="52" height="42" viewBox="0 0 52 42" fill="none" xmlns="http://www.w3.org/2000/svg">
<path d="M46.4848 10.4888C46.5072 10.9424 46.5156 11.4016 46.5156 11.8552C46.5156 25.8272 35.884 41.9328 16.4436 41.9328C10.4712 41.9328 4.91879 40.1828 0.23999 37.1812C3.00744 37.5159 5.81372 37.3019 8.49842 36.5514C11.1831 35.801 13.6936 34.5288 15.8864 32.8076C13.6812 32.7659 11.5441 32.0362 9.77393 30.7204C8.00378 29.4045 6.68907 27.5685 6.01359 25.4688C7.59856 25.7652 9.22978 25.703 10.7876 25.2868C8.3953 24.8017 6.24431 23.5044 4.69912 21.6148C3.15393 19.7251 2.30959 17.3594 2.30919 14.9184V14.7868C3.77694 15.6033 5.41849 16.0574 7.09719 16.1112C4.85683 14.6176 3.27092 12.3254 2.66316 9.7023C2.05539 7.07922 2.47158 4.32308 3.82679 1.99641C6.4806 5.2625 9.79177 7.93382 13.5452 9.83684C17.2987 11.7399 21.4105 12.832 25.6136 13.0424C25.4317 12.2517 25.3406 11.4429 25.342 10.6316C25.342 9.24404 25.6153 7.87006 26.1464 6.58815C26.6775 5.30623 27.4559 4.1415 28.4372 3.16046C29.4185 2.17943 30.5835 1.40132 31.8655 0.870577C33.1476 0.339831 34.5216 0.066846 35.9092 0.0672137C37.3553 0.0648554 38.7864 0.359645 40.1139 0.933298C41.4413 1.50695 42.6367 2.34723 43.626 3.40201C45.9924 2.93357 48.2619 2.06628 50.3376 0.837214C49.5481 3.28499 47.8964 5.36263 45.6896 6.68361C47.7847 6.43524 49.8309 5.87462 51.76 5.02041C50.3428 7.14404 48.5561 8.99618 46.4848 10.4888Z" fill="white"/>
</svg>
